<?xml version="1.0" encoding="utf-8"?>
<!-- Generator: Adobe Illustrator 22.0.0, SVG Export Plug-In . SVG Version: 6.00 Build 0)  -->
<svg version="1.1" id="Capa_1" xmlns="http://www.w3.org/2000/svg" xmlns:xlink="http://www.w3.org/1999/xlink" x="0px" y="0px"
	 viewBox="0 0 512 512" style="enable-background:new 0 0 512 512;" xml:space="preserve">
<style type="text/css">
	.st0{fill:#745A67;}
	.st1{fill:#C0CBCC;}
	.st2{fill:#E5E5E5;}
	.st3{fill:#F7F7F7;}
	.st4{opacity:0.52;fill:#CAD7D8;}
	.st5{fill:#DCE3E3;}
	.st6{fill:#C6C2C7;}
</style>
<g>
	
		<ellipse transform="matrix(0.7071 -0.7071 0.7071 0.7071 -105.515 256.4906)" class="st0" cx="256.9" cy="255.6" rx="253.9" ry="253.9"/>
	<g>
		<g>
			<path class="st1" d="M406.1,322.7V349h-37.9v9.9H134.5c-3.3,0-5.9-2.7-5.9-6v-34.1c0-3.4,2.6-6,5.9-6h233.7v9.9H406.1z"/>
			<path class="st1" d="M406.1,174.4v26.3h-37.9v9.9H134.5c-3.3,0-5.9-2.7-5.9-6v-34.1c0-3.4,2.6-6,5.9-6h233.7v9.9H406.1z"/>
			<path class="st2" d="M202,156.2v212.5c0,18.6-15.1,33.7-33.8,33.7c-9.3,0-17.7-3.8-23.8-9.9c-6.1-6.1-9.9-14.5-9.9-23.8V156.2
				c0-18.6,15.1-33.7,33.7-33.7c9.3,0,17.7,3.8,23.8,9.9C198.2,138.4,202,146.9,202,156.2z"/>
			<path class="st3" d="M174.7,402.8c0,3.6-2.9,6.5-6.5,6.5l0,0c-3.6,0-6.5-2.9-6.5-6.5V122c0-3.6,2.9-6.5,6.5-6.5l0,0
				c3.6,0,6.5,2.9,6.5,6.5V402.8z"/>
			<path class="st4" d="M181.2,125v274.7c-2.1,0.9-4.2,1.5-6.5,2V123.1C177,123.5,179.1,124.2,181.2,125z"/>
			<path class="st2" d="M288.8,368.6c0,18.6-15.1,33.7-33.7,33.7l0,0c-18.6,0-33.7-15.1-33.7-33.7V156.2c0-18.6,15.1-33.7,33.7-33.7
				l0,0c18.6,0,33.7,15.1,33.7,33.7V368.6z"/>
			<path class="st4" d="M268,125v274.7c-2.1,0.9-4.2,1.5-6.5,2V123.1C263.8,123.5,265.9,124.2,268,125z"/>
			<path class="st3" d="M261.5,402.8c0,3.6-2.9,6.5-6.5,6.5l0,0c-3.6,0-6.5-2.9-6.5-6.5V122c0-3.6,2.9-6.5,6.5-6.5l0,0
				c3.6,0,6.5,2.9,6.5,6.5V402.8z"/>
			<path class="st2" d="M375.6,368.6c0,18.6-15.1,33.7-33.7,33.7l0,0c-18.6,0-33.7-15.1-33.7-33.7V156.2c0-18.6,15.1-33.7,33.7-33.7
				l0,0c18.6,0,33.7,15.1,33.7,33.7V368.6z"/>
			<path class="st4" d="M354.8,125v274.7c-2.1,0.9-4.2,1.5-6.5,2V123.1C350.6,123.5,352.8,124.2,354.8,125z"/>
			<path class="st3" d="M348.3,402.8c0,3.6-2.9,6.5-6.5,6.5l0,0c-3.6,0-6.5-2.9-6.5-6.5V122c0-3.6,2.9-6.5,6.5-6.5l0,0
				c3.6,0,6.5,2.9,6.5,6.5V402.8z"/>
			<rect x="202" y="164.5" class="st5" width="19.4" height="46.2"/>
			<rect x="288.8" y="164.5" class="st5" width="19.4" height="46.2"/>
			<rect x="202" y="312.7" class="st5" width="19.4" height="46.2"/>
			<rect x="288.8" y="312.7" class="st5" width="19.4" height="46.2"/>
			<rect x="375.6" y="174.4" class="st5" width="14" height="26.3"/>
			<rect x="375.6" y="322.7" class="st5" width="14" height="26.3"/>
		</g>
	</g>
	<path class="st6" d="M509.8,276.7c-10.6,128.9-117.5,230.5-248.6,232.7l-116.9-117c4.6,4.6,10.7,8,17.4,9.3v1.1
		c0,3.5,2.9,6.5,6.5,6.5c3.5,0,6.5-2.9,6.5-6.5v-1.1c2.3-0.5,4.4-1.1,6.5-2c12.2-5.1,20.8-17,20.8-31.1v-9.7h19.4v9.7
		c0,9.3,3.8,17.7,9.9,23.8c4.6,4.6,10.7,8,17.4,9.3v1.1c0,3.5,2.9,6.5,6.4,6.5c3.6,0,6.5-2.9,6.5-6.5v-1.1c1.1-0.2,2.2-0.5,3.3-0.8
		c1.1-0.3,2.1-0.7,3.2-1.2c12.2-5.1,20.7-17.1,20.7-31.1v-9.7h19.4v9.7c0,9.3,3.8,17.7,9.9,23.8c4.6,4.6,10.6,8,17.4,9.3v1.1
		c0,3.5,2.9,6.5,6.5,6.5c3.6,0,6.5-2.9,6.5-6.5v-1.1c2.3-0.5,4.4-1.1,6.5-2c12.2-5.1,20.7-17.1,20.7-31.1V349h30.5v-26.3h-30.5
		V200.7h30.5v-26.3h-30.5v-18.2c0-8.1-2.9-15.6-7.7-21.4L509.8,276.7z"/>
	<rect x="288.7" y="210.7" class="st6" width="19.4" height="102.1"/>
	<rect x="201.9" y="210.7" class="st6" width="19.4" height="102.1"/>
	<path class="st6" d="M221.3,161.6v2.9h-19.4v-8.3c0-9.3-3.8-17.8-9.9-23.9L221.3,161.6z"/>
	<path class="st6" d="M308.1,161.5v2.9h-19.4v-8.3c0-9.3-3.8-17.7-9.8-23.8L308.1,161.5z"/>
</g>
</svg>
