<?xml version="1.0" encoding="utf-8"?>
<!-- Generator: Adobe Illustrator 22.0.0, SVG Export Plug-In . SVG Version: 6.00 Build 0)  -->
<svg version="1.1" id="Capa_1" xmlns="http://www.w3.org/2000/svg" xmlns:xlink="http://www.w3.org/1999/xlink" x="0px" y="0px"
	 viewBox="0 0 512 512" style="enable-background:new 0 0 512 512;" xml:space="preserve">
<style type="text/css">
	.st0{fill:#745A67;}
	.st1{fill:#9CBCC2;}
	.st2{fill:#F2F2F2;}
	.st3{fill:#F4B8BC;}
	.st4{fill:#D45A5F;}
	.st5{fill:#F86A6F;}
	.st6{opacity:0.27;fill:#FFFFFF;}
	.st7{opacity:0.55;fill:#DCC6B8;}
	.st8{fill:#DCC6B8;}
	.st9{fill:#B9D0D2;}
	.st10{fill:#DCE3E3;}
	.st11{fill:#C6C2C7;}
</style>
<g>
	<path class="st0" d="M511.3,256.2c0,140.6-114,254.6-254.6,254.6C116,510.9,2,396.9,2,256.2C2,115.6,116,1.6,256.6,1.6
		C397.3,1.6,511.3,115.6,511.3,256.2z"/>
	<g>
		<path class="st1" d="M356.8,174v244.8h-37V174c0-20.7-17-37.7-37.8-37.7v-37C323.3,99.3,356.8,132.8,356.8,174z"/>
		<g>
			<path class="st2" d="M287.5,232.9v131.9c0,21-17.1,38.1-38.1,38.1c-21,0-38.1-17.1-38.1-38.1V205.7c0-9-7.3-16.3-16.3-16.3
				c-9,0-16.3,7.4-16.3,16.3v129.2h-21.8V205.7c0-0.9,0.1-1.8,0.2-2.7c1.3-19.8,17.9-35.4,37.9-35.4c21,0,38.1,17.1,38.1,38.1v159.2
				c0,9,7.3,16.3,16.3,16.3c9,0,16.3-7.4,16.3-16.3V232.9H287.5z"/>
		</g>
		<g>
			<path class="st3" d="M157,203c-0.1,0.9-0.2,1.8-0.2,2.7V203H157z"/>
		</g>
		<rect x="263.9" y="224.9" class="st4" width="25.6" height="8.1"/>
		<rect x="260" y="205.7" class="st5" width="33.3" height="19.2"/>
		<path class="st6" d="M269.2,205.7v12.9c0,1.2-1,2.2-2.2,2.2h-7v-15.1H269.2z"/>
		<path class="st7" d="M283,205.7v12.9c0,1.2-1,2.2-2.2,2.2h-8.2c-1.2,0-2.2-1-2.2-2.2v-12.9H283z"/>
		<path class="st8" d="M293.4,205.7v15.1h-7c-1.2,0-2.2-1-2.2-2.2v-12.9H293.4z"/>
		<rect x="155" y="334.8" class="st4" width="25.6" height="8.1"/>
		<rect x="151.1" y="342.9" class="st5" width="33.3" height="19.2"/>
		<path class="st8" d="M175.3,362.1v-12.9c0-1.2,1-2.2,2.2-2.2h7v15.1H175.3z"/>
		<path class="st7" d="M161.5,362.1v-12.9c0-1.2,1-2.2,2.2-2.2h8.2c1.2,0,2.2,1,2.2,2.2v12.9H161.5z"/>
		<path class="st6" d="M151.1,362.1V347h7c1.2,0,2.2,1,2.2,2.2v12.9H151.1z"/>
		<rect x="243.3" y="93.6" class="st9" width="38.7" height="48"/>
		<rect x="314.8" y="175.6" class="st9" width="47.4" height="18.1"/>
		<rect x="317.5" y="193.6" class="st9" width="41.5" height="10"/>
		<rect x="319.8" y="203.7" class="st10" width="37" height="9.6"/>
		<path class="st10" d="M293,100.1l-2.6,37.1c-2.7-0.6-5.5-0.9-8.3-0.9v-37C285.8,99.3,289.4,99.6,293,100.1z"/>
		<rect x="265.7" y="232.9" class="st8" width="21.8" height="7.1"/>
		<rect x="156.9" y="327.7" class="st8" width="21.8" height="7.1"/>
	</g>
	<path class="st11" d="M508.3,294.9C491.7,404,405.7,490.5,296.7,507.7L151.1,362.1h33.4v-19.2h-3.9v-8.1h-1.9V205.7
		c0-9,7.3-16.4,16.3-16.4c9,0,16.4,7.4,16.4,16.4v159.1c0,21,17.1,38.1,38.1,38.1c21,0,38.1-17.1,38.1-38.1v-132h1.9v-8.1h3.9v-19.1
		l26.4,26.4v186.7h37V203.7h2.2v-10h3.1v-18h-5.4V174c0-19.1-7.2-36.5-19-49.7L508.3,294.9z"/>
	<path class="st11" d="M265.7,232.9v132c0,9-7.4,16.4-16.3,16.4c-9,0-16.4-7.4-16.4-16.4V205.7c0-9-3.1-17.3-8.4-23.8L260,217v7.8
		h3.9v8.1H265.7z"/>
	<path class="st11" d="M314.7,175.6v18h2.8v10h2.2v14.4l-76.5-76.5H282v-5.3c0.1,0,0.1,0,0.1,0c1.3,0,2.6,0.1,3.9,0.2
		c1.2,0.1,2.3,0.3,3.5,0.5c17.3,3.5,30.3,18.8,30.3,37v1.6H314.7z"/>
</g>
</svg>
