<?xml version="1.0" encoding="utf-8"?>
<!-- Generator: Adobe Illustrator 22.0.0, SVG Export Plug-In . SVG Version: 6.00 Build 0)  -->
<svg version="1.1" id="Capa_1" xmlns="http://www.w3.org/2000/svg" xmlns:xlink="http://www.w3.org/1999/xlink" x="0px" y="0px"
	 viewBox="0 0 512 512" style="enable-background:new 0 0 512 512;" xml:space="preserve">
<style type="text/css">
	.st0{fill:#FFBA00;}
	.st1{fill:#F2F2F2;}
	.st2{fill:#CAD7D8;}
	.st3{fill:#E3E3E3;}
	.st4{fill:#3DAFC8;}
	.st5{fill:#BBD4D6;}
	.st6{fill:#CCCCCC;}
	.st7{fill:#DBD2BF;}
</style>
<g>
	<path class="st0" d="M509.7,255.6c0,140.2-113.6,253.8-253.8,253.8C115.7,509.4,2.1,395.8,2.1,255.6C2.1,115.4,115.7,1.7,255.9,1.7
		C396.1,1.7,509.7,115.4,509.7,255.6z"/>
	<g>
		<path class="st1" d="M291.7,382.2c0,7,2.7,14.7,8.5,20.7c0,0,0.1,0.1,0.1,0.1c1.8,1.6,3.5,3.3,5.1,5.1
			c9.2,10.5,14.7,24.2,14.7,39.3H200.7c0-14.9,5.5-28.5,14.5-39c1.7-1.9,3.4-3.7,5.3-5.4c0.1,0,0.1-0.1,0.1-0.1
			c6-5.7,8.6-13.8,8.6-20.7c0-9.6-4.2-18.1-10.9-23.9c-2.8-1.5-5.4-3.1-8-5c-22.4-15.7-37-41.7-37-71.3h174.1
			c0,29.7-14.8,55.8-37.4,71.5c-2.3,1.6-4.7,3.1-7.1,4.5C296.1,363.8,291.7,372.5,291.7,382.2z"/>
		<path class="st2" d="M291.7,382.2c0,7,2.7,14.7,8.5,20.7c0,0,0.1,0.1,0.1,0.1c1.8,1.6,3.5,3.3,5.1,5.1
			c9.2,10.5,14.7,24.2,14.7,39.3h-30.7c1.4-11.4,1.5-22.9-4.6-34.5c-5-9.5-16.5-18.4-16.5-29.8c0-13,3.3-17.3,8.9-25.9
			c12.8-19,24.5-41.4,15.6-64.2H174.1c-0.4-3.6-0.7-7.3-0.7-11h174.1c0,29.7-14.8,55.8-37.4,71.5c-2.3,1.6-4.7,3.1-7.1,4.5
			C296.1,363.8,291.7,372.5,291.7,382.2z"/>
		<path class="st1" d="M337.8,117.7L327.3,260h-135l-9.2-142.3c0-4.9,4-8.9,8.9-8.9H329C333.9,108.9,337.8,112.8,337.8,117.7z"/>
		<path class="st3" d="M360.4,271.9c0,3.3-1.3,6.3-3.5,8.4c-2.2,2.1-5.1,3.5-8.4,3.5h-176c-6.6,0-11.9-5.3-11.9-11.9
			c0-6.6,5.3-11.9,11.9-11.9h176C355,260,360.4,265.4,360.4,271.9z"/>
		<path class="st4" d="M346.4,164.5c0,46.1-23.5,78.7-56.4,90.8v4.7h-59.1v-4.7c-32.9-12.1-56.4-44.7-56.4-90.8
			c0-34.8,13.4-65.7,34.1-85.1c0,0,0,0,0,0c0.2-0.2,0.4-0.4,0.6-0.6c0.3-0.3,0.6-0.5,0.9-0.8c2.8-2.4,6.5-3.7,10.4-3.7
			c9.1,0,16.4,7.3,16.4,16.4c0,4.5-1.9,8.6-4.8,11.6c-0.4,0.4-0.8,0.8-1.3,1.2c-14.2,13.5-23.7,36.1-23.7,61.2
			c0,37.8,21.4,63.2,53.2,63.2c31.8,0,53.2-25.4,53.2-63.2c0-24.7-9.2-47.1-23-60.6c-1-1-2-1.9-3-2.8c0,0,0,0,0,0
			c-2.4-2.9-3.8-6.5-3.8-10.5c0-9.1,7.4-16.5,16.6-16.5c3.3,0,6.5,1,9.1,2.7c1.3,1.1,2.6,2.3,3.9,3.5
			C333.4,99.8,346.4,130.3,346.4,164.5z"/>
		<path class="st2" d="M313.6,164.5c0,37.9-21.4,63.2-53.2,63.2c-31.8,0-53.2-25.4-53.2-63.2c0-21.9,7.2-41.9,18.5-55.6h6.3
			c-9.4,13.3-15.1,32.2-15.1,51.5c0,35,17,57.6,43.5,57.6s43.5-22.6,43.5-57.6c0-19.6-5.5-38.2-15-51.5h6.3
			C306.4,122.5,313.6,142.6,313.6,164.5z"/>
		<path class="st5" d="M234.8,256.2v-3.6l-2.5-0.9c-33.7-12.4-53.9-45-53.9-87.2c0-32.1,11.6-61.6,31.9-81.3h0c0,0,1-1,1-1l1.2-1.1
			v0c0.1-0.1,0.1-0.1,0.2-0.2c2.2-1.8,5-2.8,7.9-2.8c6.9,0,12.6,5.6,12.6,12.6c0,3.3-1.3,6.5-3.7,8.9c-0.3,0.3-0.6,0.6-1,0.9
			c-15.8,15-25.1,38.9-25.1,64.2c0,40.1,22.9,67.1,57.1,67.1c34.1,0,57-27,57-67.1c0-24.8-9-48.5-24.2-63.3c-0.8-0.9-1.8-1.8-3-2.8
			c-1.8-2.3-2.7-5-2.7-7.9c0-7,5.7-12.7,12.7-12.7c2.5,0,4.9,0.7,7,2.1c1,0.8,2.2,1.9,3.3,3.1c20.3,19.7,31.9,49.4,31.9,81.5
			c0,42.2-20.1,74.8-53.9,87.2l-2.5,0.9v3.6H234.8z"/>
		<rect x="246.3" y="101.7" class="st6" width="28.2" height="7.2"/>
	</g>
	<path class="st7" d="M509,276c-10.2,128.5-116.1,230-246.4,233.3l-61.9-61.9h119.5c0-3.8-0.4-7.5-1-11c-0.5-2.7-1.1-5.3-2-7.8
		c-2.5-7.6-6.5-14.5-11.7-20.4c-1.6-1.9-3.3-3.6-5.1-5.2c-0.1,0-0.1-0.1-0.2-0.1c-5.7-6-8.4-13.7-8.4-20.7c0-9.7,4.4-18.3,11.3-24.1
		c2.4-1.4,4.8-2.9,7.1-4.5c22.2-15.4,36.8-40.8,37.4-69.8h1c3.3,0,6.3-1.4,8.4-3.4c2.1-2.2,3.5-5.2,3.5-8.4
		c0-6.6-5.4-11.9-11.9-11.9h-21.2l2.7-36.6c10.3-15.5,16.4-35.5,16.4-58.9c0-16.7-3.1-32.5-8.5-46.5v-0.2c0-2.6-1.1-4.9-2.9-6.5
		c-5.6-12-12.9-22.6-21.7-31L509,276z"/>
</g>
</svg>
